<svg xmlns="http://www.w3.org/2000/svg" width="100%" height="100%" fill="none" viewBox="0 0 1705 2842"><path fill="#5A9DED" fill-rule="evenodd" d="M853.5 2146L1705 1612.5L853.5 2840V2146ZM1251 2043L979.326 2215V2437.5L1251 2043Z" clip-rule="evenodd"/><path fill="#53D3E0" fill-rule="evenodd" d="M853.5 2146L2 1612.5L853.5 2840V2146ZM455.998 2043L727.674 2215V2437.5L455.998 2043Z" clip-rule="evenodd"/><path fill="#FF9C92" fill-rule="evenodd" d="M852.324 2000.91L1705 1463.17L852.324 -1.85352V2000.91ZM1534.32 1422L979.324 1772V468.5L1534.32 1422Z" clip-rule="evenodd"/><path fill="#FFE94D" fill-rule="evenodd" d="M854 2000.91L1.3252 1463.17L854 -1.85352V2000.91ZM172 1422L727 1772V468.5L172 1422Z" clip-rule="evenodd"/><path fill="#9FDB6F" d="M727 1199.32L246.351 1468.89L172 1422L219.296 1340.74L727 1056V1199.32Z" opacity="80%"/><path fill="#D28ECB" d="M980 1199.32L1460.65 1468.89L1535 1422L1487.7 1340.74L980 1056V1199.32Z" opacity="80%"/></svg>